<?xml version="1.0" encoding="UTF-8"?>
<svg id="Layer_1" data-name="Layer 1" xmlns="http://www.w3.org/2000/svg" width="3.7794461in" height="4.0680372in" xmlns:xlink="http://www.w3.org/1999/xlink" viewBox="0 0 272.1201172 292.8986816">
  <defs>
    <style>
      .cls-1 {
        fill: #127900;
      }

      .cls-1, .cls-2, .cls-3, .cls-4, .cls-5, .cls-6, .cls-7, .cls-8, .cls-9, .cls-10, .cls-11, .cls-12, .cls-13, .cls-14, .cls-15, .cls-16, .cls-17, .cls-18, .cls-19, .cls-20, .cls-21, .cls-22, .cls-23, .cls-24, .cls-25, .cls-26 {
        stroke-width: 0px;
      }

      .cls-27 {
        letter-spacing: -.0180664em;
      }

      .cls-2 {
        fill: #117100;
      }

      .cls-28 {
        stroke: blue;
        stroke-miterlimit: 10;
        stroke-width: 6px;
      }

      .cls-28, .cls-5 {
        fill: none;
      }

      .cls-29 {
        font-family: ArialMT, Arial;
      }

      .cls-29, .cls-13, .cls-30 {
        fill: #000;
      }

      .cls-29, .cls-30 {
        font-size: 16px;
      }

      .cls-29, .cls-30, .cls-31 {
        isolation: isolate;
      }

      .cls-32 {
        clip-path: url(#clippath);
      }

      .cls-3 {
        fill: #106a00;
      }

      .cls-4 {
        fill: #720000;
      }

      .cls-6 {
        fill: url(#linear-gradient);
      }

      .cls-7 {
        fill: #710000;
      }

      .cls-8 {
        fill: #1cbf00;
      }

      .cls-9 {
        fill: #00a;
      }

      .cls-10 {
        fill: blue;
      }

      .cls-11 {
        fill: #00d;
      }

      .cls-12 {
        fill: #c90000;
      }

      .cls-33 {
        clip-path: url(#clippath-1);
      }

      .cls-34 {
        clip-path: url(#clippath-4);
      }

      .cls-35 {
        clip-path: url(#clippath-3);
      }

      .cls-36 {
        clip-path: url(#clippath-2);
      }

      .cls-37 {
        clip-path: url(#clippath-7);
      }

      .cls-38 {
        clip-path: url(#clippath-8);
      }

      .cls-39 {
        clip-path: url(#clippath-6);
      }

      .cls-40 {
        clip-path: url(#clippath-5);
      }

      .cls-41 {
        clip-path: url(#clippath-9);
      }

      .cls-42 {
        clip-path: url(#clippath-13);
      }

      .cls-43 {
        clip-path: url(#clippath-12);
      }

      .cls-44 {
        clip-path: url(#clippath-10);
      }

      .cls-45 {
        clip-path: url(#clippath-11);
      }

      .cls-14 {
        fill: #ddd;
      }

      .cls-15 {
        fill: #106d00;
      }

      .cls-16 {
        fill: #840000;
      }

      .cls-30 {
        font-family: Arial-BoldMT, Arial;
        font-weight: 700;
      }

      .cls-17 {
        fill: #3f3f3f;
      }

      .cls-18 {
        fill: #106900;
      }

      .cls-46 {
        opacity: .25;
      }

      .cls-19 {
        fill: url(#linear-gradient-2);
      }

      .cls-20 {
        fill: url(#linear-gradient-3);
      }

      .cls-21 {
        fill: #212121;
      }

      .cls-22 {
        fill: #00008e;
      }

      .cls-23 {
        fill: #cf0000;
      }

      .cls-24 {
        fill: #fff;
      }

      .cls-25 {
        fill: #117500;
      }

      .cls-26 {
        fill: #7c0000;
      }
    </style>
    <clipPath id="clippath">
      <path class="cls-5" d="M187.104389,67.5461293v2.052124c-18.3105469-8.0535774-35.4552002-12.077095-52.597168-12.0769539-17.1502686.000145-34.2978516,4.0279045-52.6038208,12.0769463v-2.0521164c18.3059692-8.0490456,35.4535522-12.0768051,52.6038208-12.0769501,17.1419678-.000145,34.2866211,4.0233765,52.597168,12.0769501Z"/>
    </clipPath>
    <clipPath id="clippath-1">
      <path class="cls-5" d="M201.9093817,74.4218464v2.052124c-6.8850098-1.2262955-10.1160278-1.5223007-16.2720337-1.6068726v-2.0521088c6.1560059.0845566,9.3870239.3805618,16.2720337,1.6068573Z"/>
    </clipPath>
    <clipPath id="clippath-2">
      <path class="cls-5" d="M83.3703802,72.8149815v2.0521317c-6.1560059.0845566-9.3870239.3805618-16.2719727,1.6068573v-2.052124c6.8849487-1.2262955,10.1159668-1.5223007,16.2719727-1.6068649Z"/>
    </clipPath>
    <clipPath id="clippath-3">
      <path class="cls-5" d="M189.1732824,60.1037503c-.5310059,1.911377-.8010254,2.892395-1.367981,4.8967857-18.5512085-8.0526123-35.9274292-12.0761108-53.2955322-12.0769653-17.3808594-.0007935-34.7536621,4.0269165-53.3095093,12.0769653-.5579834-2.0043945-.8369751-2.9854126-1.367981-4.8967896-5.1660156,5.2012329-7.7219849,8.0513306-12.7349854,14.3181152v2.052124c6.8850098-1.2263184,10.1159668-1.5222778,16.2719727-1.6068726v-2.052124c-.3974609-1.4216309-.6589355-2.3685303-.9554443-3.4354858,18.1134644-7.899231,35.102356-11.8580322,52.0923462-11.8581543,16.9816895-.0001831,33.9677124,3.9545288,52.0856323,11.8580933-.2965088,1.0669556-.5580444,2.013916-.9555054,3.4355469v2.052124c6.1560059.0845947,9.3869629.3805542,16.2719727,1.6068726v-2.052124c-5.0130005-6.2667847-7.5689697-9.1168823-12.7349854-14.3181114Z"/>
    </clipPath>
    <linearGradient id="linear-gradient" x1="-361.6365814" y1="863.8300489" x2="-361.6365814" y2="945.2188361" gradientTransform="translate(1006.3453509 -298.5236403) rotate(-90.0000153) scale(1 -1)" gradientUnits="userSpaceOnUse">
      <stop offset="0" stop-color="#fff" stop-opacity="0"/>
      <stop offset=".1488302" stop-color="#fbfeff" stop-opacity=".85"/>
    </linearGradient>
    <clipPath id="clippath-4">
      <path class="cls-5" d="M142.4554022,44.7399273v2.0521278c-2.5380249-.0000076-3.81604-.0000076-6.3540039-.0000076v-2.0521164c2.5379639-.0000038,3.815979-.0000038,6.3540039-.0000038Z"/>
    </clipPath>
    <clipPath id="clippath-5">
      <path class="cls-5" d="M132.9063909,44.7399273v2.0521278c-2.5380249-.0000076-3.81604-.0000076-6.3540039-.0000076v-2.0521164c2.5379639-.0000038,3.815979-.0000038,6.3540039-.0000038Z"/>
    </clipPath>
    <clipPath id="clippath-6">
      <path class="cls-5" d="M136.4139898,55.1820431l-.0000153,2.0521202c.0000153,1.3947182-.0112305,2.944149-.0335846,4.7216988v-2.0521126c.0223541-1.7775574.0335999-3.3269882.0335999-4.7217064Z"/>
    </clipPath>
    <clipPath id="clippath-7">
      <path class="cls-5" d="M132.5924871,57.1024304l-.0000153-2.0521164c.0000153,1.428772.0118561,3.019722.0349274,4.8534317v2.0521317c-.0230713-1.8337212-.0349121-3.4246712-.0349121-4.853447Z"/>
    </clipPath>
    <clipPath id="clippath-8">
      <path class="cls-5" d="M143.868366,59.9037419v2.0521317c-4.0139771,4.296257-6.3720093,6.638916-9.3690186,11.8401184v-2.0521088c2.9970093-5.20121,5.3550415-7.5438766,9.3690186-11.8401413Z"/>
    </clipPath>
    <clipPath id="clippath-9">
      <path class="cls-5" d="M134.4993475,71.7438755v2.0521317c-2.9879761-5.2012177-5.3459473-7.5438766-9.3599854-11.8401451v-2.0521126c4.0140381,4.296257,6.3720093,6.6389236,9.3599854,11.840126Z"/>
    </clipPath>
    <clipPath id="clippath-10">
      <path class="cls-5" d="M136.4005773,59.9037381c.0078735-.9516602.0123291-1.8423462.0123291-2.6697998v-2.052124c0,.1278076-.0006104.2640381-.0007935.3945312.005127-3.5496216-.0596924-6.1040039-.1963501-8.7843018h6.2385254v-2.052124c-4.0319824-2.7316284-5.8590088-3.3320923-7.9470215-5.8692627-2.0969849,2.5371704-3.9240112,3.1376343-7.9559937,5.8692627v2.052124h6.2385254c-.1409912,2.7655029-.2056274,5.3956299-.1957397,9.1251221-.0006714-.2476196-.0014038-.4970703-.0014038-.7352905v2.052124c0,.3486938.0006714.7070312.0020752,1.0762329.0019531.5068359.0057373,1.0429077.0102539,1.5935059h-7.4666748v2.052124c4.0139771,4.2963219,6.3719482,6.6389732,9.3689575,11.8401451.2808838-.4889526.5547485-.9451904.826416-1.3875732.0509033-.0828247.1019897-.1672974.1526489-.2487183.2595825-.4172974.5162964-.8161011.7714233-1.1990356.0504761-.0757446.1008301-.1494141.1511841-.223999.2628174-.3890991.5246582-.7675171.7871094-1.1292725.0060425-.0083618.012085-.0160522.0181274-.0244141.2603149-.3582764.5220337-.7028198.7857666-1.0419312.050293-.0646362.1003418-.1300049.1508179-.1941528.2584229-.3283691.5197754-.6505127.7854614-.9691772.0540771-.0648804.1087646-.1293945.163269-.1940308.2741699-.3253784.5513916-.6488037.8374023-.9730225.010498-.0119019.0214233-.0238647.0319214-.0357666.2868652-.3247681.5823975-.6518555.8849487-.9832764.055542-.0609131.1103516-.1212158.1665039-.1824951.3018799-.3292847.6119385-.6640625.9332275-1.0085449.0876465-.0939941.1765137-.1890869.2658081-.2846069.1955566-.2091064.3927002-.4197998.5964966-.637207.3393555-.3619995.6864624-.7321777,1.0515137-1.1228638v-2.0521851s-7.4667358,0-7.4667358.0000038ZM136.4044836,57.3976956v.0015259c-.0056152.7839355-.0140381,1.6156616-.0252075,2.5045166.0111694-.8895264.0195923-1.7215576.0252075-2.5060425ZM132.5947302,56.2433987c.0007935.210083.0022583.4319458.00354.649292-.0012817-.2174072-.0027466-.4390869-.00354-.649292ZM132.6262853,59.9037381c-.0112305-.8894043-.0195923-1.7216187-.0252075-2.5060425.0056152.7844849.0140381,1.6165161.0252075,2.5060425Z"/>
    </clipPath>
    <linearGradient id="linear-gradient-2" x1="202.2806901" y1="143.4625912" x2="202.2806901" y2="166.0641575" gradientTransform="translate(336.7115027 -91.9403496) rotate(-180) scale(1 -1)" gradientUnits="userSpaceOnUse">
      <stop offset="0" stop-color="#fff" stop-opacity="0"/>
      <stop offset=".3696883" stop-color="#fbfeff" stop-opacity=".85"/>
    </linearGradient>
    <clipPath id="clippath-11">
      <rect class="cls-5" x="13.572254" y="153.3149586" width="45.5547638" height="31.1387787"/>
    </clipPath>
    <clipPath id="clippath-12">
      <rect class="cls-5" x="212.4704016" y="152.071642" width="46.584259" height="31.1535797"/>
    </clipPath>
    <clipPath id="clippath-13">
      <path class="cls-5" d="M197.5023229,186.6781483c-4.8870239-.4735718-7.3441772-.9644775-12.3841553-1.920166v5.5297852c-17.2333984,5.5983887-33.9263916,8.4039917-50.6142578,8.4039917-16.6608276,0-33.3203735-2.7955933-50.5197754-8.3757935v-5.8622437c-5.039978.9556885-7.4234009,1.6119995-12.3103638,2.0855713l-.8414917.9113159c4.8870239,5.1420288,7.3800049,7.6030884,12.4199829,12.2714844v-.0042725l.7318726-.7870483v-4.6137085c17.1856079,5.4804688,33.850647,8.2297363,50.5231323,8.2297363,16.6954346,0,33.3910522-2.7590942,50.6109009-8.2601318v4.6168213l.6351318.8186035c5.039978-4.668396,7.532959-7.1294556,12.4199829-12.2714844l-.6709595-.7724609ZM185.7532995,194.2770253l-.1087036-.1554565c.0363159-.0117188.0723877-.0223999.1087036-.0341187v.1895752Z"/>
    </clipPath>
    <linearGradient id="linear-gradient-3" x1="-330.9684423" y1="928.9647703" x2="-330.9684423" y2="1011.8594944" gradientTransform="translate(-799.821169 529.9211197) rotate(89.9999847) scale(1 -1)" gradientUnits="userSpaceOnUse">
      <stop offset="0" stop-color="#232424" stop-opacity="0"/>
      <stop offset=".1488302" stop-color="#232424" stop-opacity=".75"/>
    </linearGradient>
  </defs>
  <rect class="cls-24" width="272.1201172" height="292.8986816"/>
  <g>
    <g>
      <path class="cls-21" d="M134.4904327,241.361496c-43.0371094,0-78.0507812-18.2763672-78.0507812-40.7412109,0-6.5205078,2.9287109-12.7783203,8.7050781-18.5996094l.0996094-.1005859.0791016-.1162109c1.5253906-2.2587891,4.0839844-6.9638672,4.0839844-13.1005859l.0029297-1.5507812c.0058594-2.4121094.0126953-4.6904297-.1328125-6.5371094-.2626953-3.3447266-1.4365234-6.1894531-2.4375-8.0703125h135.3710938c-.9726562,1.8779297-2.1181641,4.7236328-2.3808594,8.0703125-.1455078,1.8466797-.1386719,4.125-.1328125,6.5371094l.0029297,1.5507812c0,6.7871094,3.1162109,11.7919922,4.4560547,13.6289062l.0595703.0820312.0712891.0732422c5.4765625,5.6972656,8.2529297,11.7978516,8.2529297,18.1328125,0,22.4648438-35.0126953,40.7412109-78.0498047,40.7412109Z"/>
      <path class="cls-13" d="M199.8828278,154.0451202c-.7184753,1.7954407-1.3553467,4.0002899-1.5482788,6.4522552-.1497498,1.9049225-.1435242,4.2101135-.1369019,6.6506348l.0028076,1.5554504c0,7.2260284,3.3172913,12.5561981,4.7435303,14.5124207l.1200867.1647186.1412659.1469421c5.1990662,5.4084778,7.8352051,11.1592865,7.8352051,17.0926666,0,10.119873-7.7089233,19.786499-21.706665,27.2192841-14.5995178,7.7523041-34.0766602,12.021698-54.8435059,12.021698-20.7669373,0-40.2441101-4.2693939-54.843689-12.021698-13.9977417-7.4327545-21.706665-17.099411-21.706665-27.2192841,0-6.1102753,2.7822876-12.0126648,8.2695312-17.5432129l.1983948-.1999359.1576843-.2333832c1.6214294-2.3995514,4.3415527-7.4013977,4.3415527-13.9401855l.0027771-1.5521698c.0065613-2.441803.0127869-4.7481842-.1370544-6.6539764-.1927795-2.4509277-.842926-4.6553192-1.5794678-6.4521942h130.6893921M204.8684845,151.0451202H64.1426849s3.2019958,4.125,3.6394348,9.6873932c.1702881,2.1657715.125061,4.9832153.125061,7.9709473,0,5.8373871-2.5063477,10.3057251-3.8272705,12.2605591-5.826416,5.8723755-9.1398926,12.5573883-9.1398926,19.656189,0,23.3291168,35.6158447,42.2409821,79.550354,42.2409821,43.9343262,0,79.5501709-18.9118652,79.5501709-42.2409821,0-6.9049072-3.1400757-13.4165039-8.6724243-19.1716919-1.1422119-1.5666504-4.1676636-6.3061371-4.1676636-12.7450562,0-2.9877319-.0454102-5.8051758.1248779-7.9709473.4376221-5.5623779,3.5431519-9.6873779,3.5431519-9.6873779h0v-.0000153Z"/>
    </g>
    <path class="cls-13" d="M134.8652802,182.1987c1.2714539,12.2991486,1.3052521,24.659668.876297,37-.1652374,4.1111298-.4093781,8.222229-.876297,12.3333435h-.75c-.4669495-4.1111145-.7110901-8.2222137-.8762207-12.3333435-.3269196-8.2219391-.3269196-16.4447174-.0000305-24.6666565.1651611-4.1111145.4093018-8.222229.8762512-12.3333435h.75Z"/>
    <g>
      <ellipse class="cls-17" cx="134.4902649" cy="138.1524811" rx="72.8282013" ry="39.748703"/>
      <path class="cls-13" d="M206.0684662,138.1524811c.0213013-7.29422-3.9351501-13.9706497-9.1736298-18.894371-16.5371399-15.056015-40.6358185-19.5516586-62.4044342-19.8546524-21.725769.3145981-45.8732147,4.8782959-62.3876648,19.8723755-5.2408905,4.9157181-9.2061539,11.5847015-9.1906166,18.8766785.0310402,7.2838898,4.0173454,13.9078369,9.27705,18.7857361,16.5452194,14.8541718,40.6439133,19.2695312,62.3009872,19.4632416,21.6145477-.205658,45.7613983-4.6884003,62.2841797-19.4809723,5.2621002-4.8699493,9.2571869-11.4863434,9.2941284-18.7680511h0v.0000153ZM208.5684662,138.1524811c.0382233,8.0029602-4.27211,15.3810272-9.9490814,20.7043304-17.0748901,15.5685883-41.7108765,20.2314758-64.1289673,20.5447083-22.3748627-.3253479-47.059967-5.0554047-64.1122208-20.5624084-5.6787796-5.3158569-9.9982071-12.6853638-9.9660454-20.6866455.0129013-7.9928131,4.3534279-15.3191376,10.0524864-20.5957031,17.0795822-15.3684769,41.7212906-19.9503937,64.0255203-20.1532898,22.2612152.2153549,46.9516754,4.8638,64.008728,20.1710052,5.7008514,5.2691498,10.050415,12.5868225,10.0695801,20.5780182h0v-.0000153Z"/>
    </g>
    <g>
      <ellipse class="cls-13" cx="134.4902668" cy="129.6483593" rx="48.8710003" ry="24.9927845"/>
      <path class="cls-14" d="M182.2362518,129.6483612c-.3452148-10.0429611-10.4993439-15.8191605-18.8578796-19.238205-18.3034515-6.7967682-39.4551086-6.6699677-57.7679214.0210037-25.0245438,9.7532806-25.1832657,28.5333023.1711655,37.9859695,18.2534943,6.4502716,39.1239319,6.3430328,57.4094238-.0207977,8.36026-3.2401276,18.5186462-8.7919617,19.0452118-18.7479706h0ZM184.4862518,129.6483612c-.2189636,11.0277252-11.2018127,17.7090607-20.3058319,21.3403015-18.976593,7.0039978-40.3860703,6.8770599-59.3721237-.0208893-26.9642639-10.4181671-27.1331482-32.0776901.1711731-42.1903229,18.892952-6.6614456,40.1343307-6.5394897,59.0136948.0207596,9.1048889,3.4435272,20.1096954,9.9025192,20.4930878,20.8501511h0Z"/>
    </g>
  </g>
  <g>
    <g class="cls-31">
      <rect class="cls-3" x="136.9113958" y="81.7601567" width="3.5999756" height="2.052124"/>
      <rect class="cls-3" x="128.4873846" y="81.7601567" width="3.5999756" height="2.052124"/>
      <polygon class="cls-8" points="134.4993475 77.6837864 140.5113714 81.7601567 136.9113958 81.7601567 137.50539 89.963686 131.5023992 89.963686 132.0873602 81.7601567 128.4873846 81.7601567 134.4993475 77.6837864"/>
      <rect class="cls-3" x="131.5023992" y="89.963686" width="6.0029907" height="2.052124"/>
    </g>
    <g class="cls-31">
      <text class="cls-29" transform="translate(220.0705566 154.6399841)"><tspan x="0" y="0">+X</tspan></text>
    </g>
    <g class="cls-31">
      <text class="cls-29" transform="translate(148.3364258 91.3812256)"><tspan x="0" y="0">+</tspan><tspan class="cls-27" x="9.34375" y="0">Y</tspan></text>
    </g>
    <g class="cls-31">
      <text class="cls-29" transform="translate(23.4358387 95.5516052)"><tspan x="0" y="0">+Z</tspan></text>
    </g>
    <g class="cls-46">
      <g class="cls-31">
        <polygon class="cls-8" points="137.3973425 267.8375264 141.7353399 267.8375264 134.4993475 280.5910054 127.2723425 267.8375264 131.6013906 267.8375264 131.7363394 251.1513996 137.2713659 251.1513996 137.3973425 267.8375264"/>
        <polygon class="cls-1" points="141.7353399 267.8375264 141.7353399 269.8896504 134.4993475 282.6431294 134.4993475 280.5910054 141.7353399 267.8375264"/>
        <polygon class="cls-18" points="134.4993475 280.5910054 134.4993475 282.6431294 127.2723425 269.8896504 127.2723425 267.8375264 134.4993475 280.5910054"/>
      </g>
    </g>
    <g class="cls-46">
      <g>
        <line class="cls-28" x1="38.1615141" y1="200.8982868" x2="38.1615141" y2="221.4672261"/>
        <polygon class="cls-10" points="30.6820219 219.2787495 38.1615141 232.2315693 45.6410063 219.2787495 30.6820219 219.2787495"/>
      </g>
    </g>
    <g>
      <line class="cls-28" x1="38.1615141" y1="134.3985615" x2="38.1615141" y2="113.8296223"/>
      <polygon class="cls-10" points="45.6410063 116.0181294 38.1615141 103.065279 30.6820219 116.0181294 45.6410063 116.0181294"/>
    </g>
    <g id="Envelope_persp" data-name="Envelope persp">
      <g class="cls-31">
        <g class="cls-31">
          <g class="cls-32">
            <g class="cls-31">
              <path class="cls-4" d="M187.104389,67.5461293v2.052124c-18.3105469-8.0535736-35.4552002-12.0770912-52.597168-12.0769501-17.1502686.000145-34.2978516,4.0279045-52.6038208,12.0769501v-2.052124c18.3059692-8.0490417,35.4535522-12.0768051,52.6038208-12.0769501,17.1419678-.000145,34.2866211,4.0233765,52.597168,12.0769501"/>
            </g>
          </g>
        </g>
        <path class="cls-12" d="M134.5063055,52.9235668c17.3704224.0008316,34.7488403,4.0243492,53.3000488,12.0769234.5580444-2.0043602.8370361-2.985405,1.368042-4.8967361,5.1569824,5.2012024,7.7129517,8.0512772,12.7349854,14.3180923-6.8850098-1.2262955-10.1160278-1.5223007-16.2720337-1.6068649.5940552-2.1566086.8910522-3.2137604,1.467041-5.2688522-18.3105469-8.0535736-35.4552002-12.0770912-52.597168-12.0769501-17.1502686.000145-34.2978516,4.0279045-52.6038208,12.0769501.5759888,2.0550919.8639526,3.1122437,1.46698,5.2688522-6.1560059.0845718-9.3870239.3805771-16.2719727,1.6068649,5.0129395-6.2668152,7.5689697-9.1168976,12.7349854-14.3180962.5310059,1.9113312.8009644,2.8923759,1.3590088,4.89674,18.5557861-8.0499878,35.9308472-12.0777512,53.3139038-12.0769234Z"/>
        <g class="cls-31">
          <g class="cls-33">
            <g class="cls-31">
              <path class="cls-4" d="M201.9093817,74.4218464v2.052124c-6.8850098-1.2262955-10.1160278-1.5223007-16.2720337-1.6068649v-2.052124c6.1560059.0845718,9.3870239.3805771,16.2720337,1.6068649"/>
            </g>
          </g>
        </g>
        <g class="cls-31">
          <g class="cls-36">
            <g class="cls-31">
              <path class="cls-4" d="M83.3703802,72.8149815v2.052124c-6.1560059.0845718-9.3870239.3805771-16.2719727,1.6068649v-2.052124c6.8849487-1.2262955,10.1159668-1.5223007,16.2719727-1.6068649"/>
            </g>
          </g>
        </g>
      </g>
    </g>
    <g class="cls-35">
      <rect class="cls-6" x="61.1286282" y="47.0586552" width="81.3887787" height="32.1042862"/>
    </g>
    <g class="cls-31">
      <g class="cls-31">
        <g class="cls-34">
          <g class="cls-31">
            <path class="cls-15" d="M142.4554022,44.7399273v2.0521202h-6.3540039v-2.0521202h6.3540039"/>
          </g>
        </g>
      </g>
      <g class="cls-31">
        <g class="cls-40">
          <g class="cls-31">
            <path class="cls-15" d="M132.9063909,44.7399273v2.0521202h-6.3540039v-2.0521202h6.3540039"/>
          </g>
        </g>
      </g>
      <g class="cls-31">
        <g class="cls-39">
          <g class="cls-31">
            <path class="cls-1" d="M136.4139898,55.1820431v2.0521202c0,1.3947182-.0112457,2.9441528-.0335999,4.7216988v-2.0521202c.0223541-1.7775497.0335999-3.3269806.0335999-4.7216988"/>
          </g>
        </g>
      </g>
      <g class="cls-31">
        <g class="cls-37">
          <g class="cls-31">
            <path class="cls-15" d="M132.6273992,59.9037419v2.0521202c-.0230713-1.8337097-.0349121-3.4246597-.0349121-4.8534355v-2.0521202c0,1.4287758.0118408,3.0197258.0349121,4.8534355"/>
          </g>
        </g>
      </g>
      <path class="cls-8" d="M134.4993475,38.8706074c2.0880127,2.5371513,3.9240112,3.1376228,7.9560547,5.8693237h-6.3540039c.2789917,4.5499725.3689575,8.0089798.2789917,15.1638145h7.4879761c-4.0139771,4.2962685-6.3720093,6.6389275-9.3690186,11.8401299-2.9879761-5.2012024-5.3459473-7.543869-9.3599854-11.8401337h7.4880371c-.0900269-7.1548309-.0090332-10.613842.2789917-15.1638145h-6.3540039c4.0319824-2.7316971,5.8590088-3.3321686,7.9469604-5.8693199Z"/>
      <g class="cls-31">
        <g class="cls-38">
          <g class="cls-31">
            <path class="cls-2" d="M143.868366,59.9037419v2.0521202c-.6637878.7104721-1.2822876,1.3675194-1.8658905,1.9929008v-2.0521202c.5836029-.6253815,1.2021027-1.2824287,1.8658905-1.9929008"/>
            <path class="cls-25" d="M142.0024755,61.8966427v2.0521202c-2.9454498,3.1563492-5.0017395,5.5061493-7.5031281,9.847229v-2.052124c2.5013885-4.3410797,4.5576782-6.6908798,7.5031281-9.8472328"/>
          </g>
        </g>
      </g>
      <g class="cls-31">
        <g class="cls-41">
          <g class="cls-31">
            <path class="cls-15" d="M134.4993475,71.7438755v2.052124c-2.9879761-5.2012024-5.3459473-7.543869-9.3599854-11.8401337v-2.0521202c4.0140381,4.2962685,6.3720093,6.6389275,9.3599854,11.8401299"/>
          </g>
        </g>
      </g>
    </g>
    <g class="cls-44">
      <rect class="cls-19" x="124.2795599" y="51.5222416" width="20.3025055" height="22.6015663"/>
    </g>
    <g class="cls-31">
      <text class="cls-30" transform="translate(106.9327087 24.0613098)"><tspan x="0" y="0">Legacy</tspan></text>
    </g>
    <g class="cls-45">
      <g class="cls-46">
        <g>
          <g class="cls-31">
            <polygon class="cls-7" points="237.9363592 163.6890736 237.9363592 165.7411976 236.7213934 161.6478749 236.7213934 159.5957508 237.9363592 163.6890736"/>
            <polygon class="cls-7" points="237.9363592 163.6890736 237.9363592 165.7411976 236.7213934 161.6478749 236.7213934 159.5957508 237.9363592 163.6890736"/>
            <rect class="cls-4" x="221.4483831" y="169.3215809" width="18.1530151" height="2.052124"/>
            <polygon class="cls-7" points="221.4483831 169.3215809 221.4483831 171.3737049 220.071369 165.7411976 220.071369 163.6890736 221.4483831 169.3215809"/>
            <polygon class="cls-23" points="236.7213934 159.5957508 251.4543646 166.4799671 240.8793524 173.6516896 239.6013983 169.3215809 221.4483831 169.3215809 220.071369 163.6890736 237.9363592 163.6890736 236.7213934 159.5957508"/>
            <polygon class="cls-26" points="251.4543646 166.4799671 251.4543646 168.5320912 240.8793524 175.7038136 240.8793524 173.6516896 251.4543646 166.4799671"/>
            <polygon class="cls-7" points="240.8793524 173.6516896 240.8793524 175.7038136 239.6013983 171.3737049 239.6013983 169.3215809 240.8793524 173.6516896"/>
          </g>
          <g class="cls-31">
            <polygon class="cls-16" points="34.2843778 159.5957508 34.2843778 161.6478749 33.069351 165.7411976 33.069351 163.6890736 34.2843778 159.5957508"/>
            <polygon class="cls-16" points="34.2843778 159.5957508 34.2843778 161.6478749 33.069351 165.7411976 33.069351 163.6890736 34.2843778 159.5957508"/>
            <polygon class="cls-16" points="50.9344023 163.6890736 50.9344023 165.7411976 49.5573881 171.3737049 49.5573881 169.3215809 50.9344023 163.6890736"/>
            <rect class="cls-4" x="31.404373" y="169.3215809" width="18.1530151" height="2.052124"/>
            <polygon class="cls-23" points="34.2843778 159.5957508 33.069351 163.6890736 50.9344023 163.6890736 49.5573881 169.3215809 31.404373 169.3215809 30.1263578 173.6516896 19.5513466 166.4799671 34.2843778 159.5957508"/>
            <polygon class="cls-16" points="31.404373 169.3215809 31.404373 171.3737049 30.1263578 175.7038136 30.1263578 173.6516896 31.404373 169.3215809"/>
            <polygon class="cls-7" points="30.1263578 173.6516896 30.1263578 175.7038136 19.5513466 168.5320912 19.5513466 166.4799671 30.1263578 173.6516896"/>
          </g>
        </g>
      </g>
    </g>
    <g class="cls-43">
      <g>
        <g class="cls-31">
          <polygon class="cls-7" points="237.9363592 163.6890736 237.9363592 165.7411976 236.7213934 161.6478749 236.7213934 159.5957508 237.9363592 163.6890736"/>
          <polygon class="cls-7" points="237.9363592 163.6890736 237.9363592 165.7411976 236.7213934 161.6478749 236.7213934 159.5957508 237.9363592 163.6890736"/>
          <rect class="cls-4" x="221.4483831" y="169.3215809" width="18.1530151" height="2.052124"/>
          <polygon class="cls-7" points="221.4483831 169.3215809 221.4483831 171.3737049 220.071369 165.7411976 220.071369 163.6890736 221.4483831 169.3215809"/>
          <polygon class="cls-23" points="236.7213934 159.5957508 251.4543646 166.4799671 240.8793524 173.6516896 239.6013983 169.3215809 221.4483831 169.3215809 220.071369 163.6890736 237.9363592 163.6890736 236.7213934 159.5957508"/>
          <polygon class="cls-26" points="251.4543646 166.4799671 251.4543646 168.5320912 240.8793524 175.7038136 240.8793524 173.6516896 251.4543646 166.4799671"/>
          <polygon class="cls-7" points="240.8793524 173.6516896 240.8793524 175.7038136 239.6013983 171.3737049 239.6013983 169.3215809 240.8793524 173.6516896"/>
        </g>
        <g class="cls-31">
          <polygon class="cls-16" points="34.2843778 159.5957508 34.2843778 161.6478749 33.069351 165.7411976 33.069351 163.6890736 34.2843778 159.5957508"/>
          <polygon class="cls-16" points="50.9344023 163.6890736 50.9344023 165.7411976 49.5573881 171.3737049 49.5573881 169.3215809 50.9344023 163.6890736"/>
          <rect class="cls-4" x="31.404373" y="169.3215809" width="18.1530151" height="2.052124"/>
          <polygon class="cls-23" points="34.2843778 159.5957508 33.069351 163.6890736 50.9344023 163.6890736 49.5573881 169.3215809 31.404373 169.3215809 30.1263578 173.6516896 19.5513466 166.4799671 34.2843778 159.5957508"/>
          <polygon class="cls-16" points="31.404373 169.3215809 31.404373 171.3737049 30.1263578 175.7038136 30.1263578 173.6516896 31.404373 169.3215809"/>
          <polygon class="cls-7" points="30.1263578 173.6516896 30.1263578 175.7038136 19.5513466 168.5320912 19.5513466 166.4799671 30.1263578 173.6516896"/>
        </g>
      </g>
    </g>
    <g>
      <polygon class="cls-22" points="83.9841421 192.8750782 83.9841421 198.9307576 83.2522695 199.7178669 83.2522695 194.0875264 83.9841421 192.8750782"/>
      <g class="cls-31">
        <polyline class="cls-22" points="185.1181524 184.7580128 185.753269 185.6661702 185.1181524 184.7580128 185.1181524 190.2926808 185.753269 191.1112538 185.753269 185.6661702"/>
        <polyline class="cls-22" points="185.1181524 193.3688526 185.753269 194.2770253 185.1181524 193.3688526 185.1181524 198.9035359 185.753269 199.7220936 185.753269 194.2770253"/>
        <path class="cls-9" d="M185.753269,185.6661702c5.0400085.9556732,7.5329895,1.3108826,12.4200134,1.7844849l-.67099-.7724609c-4.8870239-.4736023-7.3441467-.9645081-12.3841553-1.9201813"/>
      </g>
      <g class="cls-31">
        <path class="cls-9" d="M70.8322866,187.450655l.8414764-.9113159c4.8869934-.4736023,7.2704086-1.1299286,12.3103867-2.0855865l-.7318802,1.2124329c-5.039978.9556732-7.5329895,1.3108826-12.4199829,1.7844849"/>
      </g>
      <polygon class="cls-22" points="83.9841421 184.4537373 83.9841421 190.3213368 83.2522695 191.1084462 83.2522695 185.6661702 83.9841421 184.4537373"/>
      <path class="cls-9" d="M83.2522695,191.1084462v-1.026062c17.4593506,5.7398376,34.354248,8.6094208,51.2516098,8.6094208,16.893158,0,33.7904968-2.8696594,51.2493896-8.6066132v1.026062c-17.4588928,5.7369537-34.3562317,8.6066132-51.2493896,8.6066132-16.8973694,0-33.7922668-2.8695984-51.2516174-8.6094208"/>
      <path class="cls-11" d="M185.7532995,185.6661549v5.4450684c-17.4589233,5.7369995-34.3562622,8.6066284-51.2493896,8.6066284-16.8973999,0-33.7922974-2.8695679-51.2516479-8.609436v-5.4422607c-5.039978.9556885-7.532959,1.3109131-12.4199829,1.7844849,4.8870239,5.1420288,7.3800049,7.6030884,12.4199829,12.2714844v-5.6345825c17.4449463,5.637207,34.3455811,8.4592896,51.2550049,8.4592896,16.9009399,0,33.8010864-2.8221436,51.2460327-8.4593506v5.6346436c5.039978-4.668396,7.532959-7.1294556,12.4199829-12.2714844-4.8870239-.4735718-7.3800049-.8287964-12.4199829-1.7844849Z"/>
    </g>
    <g class="cls-42">
      <rect class="cls-20" x="129.1414969" y="180.6580978" width="82.8947144" height="36.5934448"/>
    </g>
  </g>
</svg>
