<?xml version="1.0" encoding="UTF-8"?>
<svg id="Layer_1" data-name="Layer 1" xmlns="http://www.w3.org/2000/svg" width="3.7794461in" height="4.0680372in" xmlns:xlink="http://www.w3.org/1999/xlink" viewBox="0 0 272.1201172 292.8986816">
  <defs>
    <style>
      .cls-1 {
        fill: #127900;
      }

      .cls-1, .cls-2, .cls-3, .cls-4, .cls-5, .cls-6, .cls-7, .cls-8, .cls-9, .cls-10, .cls-11, .cls-12, .cls-13, .cls-14, .cls-15, .cls-16, .cls-17, .cls-18, .cls-19, .cls-20, .cls-21, .cls-22, .cls-23, .cls-24, .cls-25, .cls-26, .cls-27, .cls-28, .cls-29 {
        stroke-width: 0px;
      }

      .cls-30 {
        letter-spacing: -.0180664em;
      }

      .cls-31 {
        stroke: blue;
        stroke-miterlimit: 10;
        stroke-width: 6px;
      }

      .cls-31, .cls-3 {
        fill: none;
      }

      .cls-32 {
        font-family: ArialMT, Arial;
      }

      .cls-32, .cls-9, .cls-12, .cls-33, .cls-34 {
        isolation: isolate;
      }

      .cls-32, .cls-13, .cls-33 {
        fill: #000;
      }

      .cls-32, .cls-33 {
        font-size: 16px;
      }

      .cls-35 {
        clip-path: url(#clippath);
      }

      .cls-2 {
        fill: #720000;
      }

      .cls-4 {
        fill: url(#linear-gradient);
      }

      .cls-5 {
        fill: #710000;
      }

      .cls-6, .cls-9 {
        fill: #1cbf00;
      }

      .cls-7 {
        fill: #760000;
      }

      .cls-8 {
        fill: #00a;
      }

      .cls-9, .cls-12 {
        opacity: .2509804;
      }

      .cls-10 {
        fill: blue;
      }

      .cls-11 {
        fill: #00d;
      }

      .cls-12 {
        fill: #106a00;
      }

      .cls-36 {
        clip-path: url(#clippath-1);
      }

      .cls-37 {
        clip-path: url(#clippath-4);
      }

      .cls-38 {
        clip-path: url(#clippath-3);
      }

      .cls-39 {
        clip-path: url(#clippath-2);
      }

      .cls-40 {
        clip-path: url(#clippath-7);
      }

      .cls-41 {
        clip-path: url(#clippath-8);
      }

      .cls-42 {
        clip-path: url(#clippath-6);
      }

      .cls-43 {
        clip-path: url(#clippath-5);
      }

      .cls-44 {
        clip-path: url(#clippath-9);
      }

      .cls-45 {
        clip-path: url(#clippath-13);
      }

      .cls-46 {
        clip-path: url(#clippath-12);
      }

      .cls-47 {
        clip-path: url(#clippath-10);
      }

      .cls-48 {
        clip-path: url(#clippath-11);
      }

      .cls-14 {
        fill: #ddd;
      }

      .cls-15 {
        fill: #840000;
      }

      .cls-33 {
        font-family: Arial-BoldMT, Arial;
        font-weight: 700;
      }

      .cls-16 {
        fill: #3f3f3f;
      }

      .cls-17 {
        fill: #00c900;
      }

      .cls-18 {
        fill: #007200;
      }

      .cls-19 {
        fill: #7a0000;
      }

      .cls-20 {
        fill: #106900;
      }

      .cls-49 {
        opacity: .15;
      }

      .cls-50 {
        opacity: .25;
      }

      .cls-21 {
        fill: #7f0000;
      }

      .cls-22 {
        fill: url(#linear-gradient-2);
      }

      .cls-23 {
        fill: url(#linear-gradient-3);
      }

      .cls-24 {
        fill: #212121;
      }

      .cls-25 {
        fill: #00008e;
      }

      .cls-26 {
        fill: #cf0000;
      }

      .cls-27 {
        fill: #fff;
      }

      .cls-28 {
        fill: #830000;
      }

      .cls-29 {
        fill: #7c0000;
      }
    </style>
    <clipPath id="clippath">
      <path class="cls-3" d="M187.0903473,67.5526199v2.052124c-18.3127747-8.0545349-35.4598389-12.0801773-52.6038818-12.0801086-17.1482239.0000763-34.293396,4.027832-52.5971069,12.080101v-2.0521164c18.3037109-8.052269,35.4488831-12.0800285,52.5971069-12.080101,17.144043-.0000725,34.2911072,4.0255737,52.6038818,12.080101Z"/>
    </clipPath>
    <clipPath id="clippath-1">
      <path class="cls-3" d="M201.89534,74.4198914v2.0521317c-6.8850098-1.2178497-10.1159973-1.522316-16.2720032-1.6068878v-2.0521088c6.1560059.0845642,9.3869934.3890228,16.2720032,1.6068649Z"/>
    </clipPath>
    <clipPath id="clippath-2">
      <path class="cls-3" d="M83.3563385,72.8130188v2.0521317c-6.1560059.0845566-9.3869934.3890228-16.2720032,1.6068649v-2.0521164c6.8850098-1.2178497,10.1159973-1.5223083,16.2720032-1.6068802Z"/>
    </clipPath>
    <clipPath id="clippath-3">
      <path class="cls-3" d="M189.1603546,60.103672c-.5310059,1.911377-.8010254,2.892395-1.367981,4.8967857-18.5512085-8.0526123-35.9274292-12.0761108-53.2955322-12.0769653-17.3808594-.0007935-34.7536621,4.0269165-53.3095093,12.0769653-.5579834-2.0043945-.8369751-2.9854126-1.367981-4.8967896-5.1660156,5.2012329-7.7219849,8.0513306-12.7349854,14.3181152v2.052124c6.8850098-1.2263184,10.1159668-1.5222778,16.2719727-1.6068726v-2.052124c-.3974609-1.4216309-.6589355-2.3685303-.9554443-3.4354858,18.1134644-7.899231,35.102356-11.8580322,52.0923462-11.8581543,16.9816895-.0001831,33.9677124,3.9545288,52.0856323,11.8580933-.2965088,1.0669556-.5580444,2.013916-.9555054,3.4355469v2.052124c6.1560059.0845947,9.3869629.3805542,16.2719727,1.6068726v-2.052124c-5.0130005-6.2667847-7.5689697-9.1168823-12.7349854-14.3181114Z"/>
    </clipPath>
    <linearGradient id="linear-gradient" x1="140.2286711" y1="195.2203631" x2="140.2286711" y2="273.6495709" gradientTransform="translate(-68.3736095 -77.1201022) rotate(89.9999847) scale(1 -1)" gradientUnits="userSpaceOnUse">
      <stop offset="0" stop-color="#fff" stop-opacity="0"/>
      <stop offset=".1488302" stop-color="#fbfeff" stop-opacity=".85"/>
    </linearGradient>
    <clipPath id="clippath-4">
      <path class="cls-3" d="M142.44133,44.7380981v2.0521317c-2.5379944-.0000114-3.815979-.0000114-6.3539734-.0000114v-2.0521126c2.5379944-.0000076,3.815979-.0000076,6.3539734-.0000076Z"/>
    </clipPath>
    <clipPath id="clippath-5">
      <path class="cls-3" d="M132.8923492,44.7380981v2.0521317c-2.5379944-.0000114-3.8160095-.0000114-6.3540039-.0000114v-2.0521126c2.5379944-.0000076,3.8160095-.0000076,6.3540039-.0000076Z"/>
    </clipPath>
    <clipPath id="clippath-6">
      <path class="cls-3" d="M136.3999634,55.1799545l-.0000153,2.052124c.0000153,1.3947868-.0112457,2.9443016-.0335999,4.721962v-2.0521164c.0223541-1.7776642.0336151-3.327179.0336151-4.7219696Z"/>
    </clipPath>
    <clipPath id="clippath-7">
      <path class="cls-3" d="M132.5797119,57.2321625v-2.0521164c0,1.3947639.011261,2.944252.0336151,4.7218742v2.0521278c-.0223541-1.7776299-.0336151-3.3271179-.0336151-4.7218857Z"/>
    </clipPath>
    <clipPath id="clippath-8">
      <path class="cls-3" d="M143.8543549,59.9019203v2.0521278c-4.0140076,4.2962646-6.3720093,6.638916-9.3600159,11.8401184v-2.0521088c2.9880066-5.20121,5.3460083-7.5438614,9.3600159-11.8401375Z"/>
    </clipPath>
    <clipPath id="clippath-9">
      <path class="cls-3" d="M134.494339,71.7420425v2.052124c-2.9970093-5.2012024-5.355011-7.5438538-9.368988-11.840126v-2.0521164c4.0139771,4.2962723,6.3719788,6.6389236,9.368988,11.8401184Z"/>
    </clipPath>
    <clipPath id="clippath-10">
      <path class="cls-3" d="M136.3876495,59.9036598c.0078735-.9516602.0123291-1.8423462.0123291-2.6697998v-2.052124c0,.1278076-.0006104.2640381-.0007935.3945312.005127-3.5496216-.0596924-6.1040039-.1963501-8.7843018h6.2385254v-2.052124c-4.0319824-2.7316284-5.8590088-3.3320923-7.9470215-5.8692627-2.0969849,2.5371704-3.9240112,3.1376343-7.9559937,5.8692627v2.052124h6.2385254c-.1409912,2.7655029-.2056274,5.3956299-.1957397,9.1251221-.0006714-.2476196-.0014038-.4970703-.0014038-.7352905v2.052124c0,.3486938.0006714.7070312.0020752,1.0762329.0019531.5068359.0057373,1.0429077.0102539,1.5935059h-7.4666748v2.052124c4.0139771,4.2963219,6.3719482,6.6389732,9.3689575,11.8401451.2808838-.4889526.5547485-.9451904.826416-1.3875732.0509033-.0828247.1019897-.1672974.1526489-.2487183.2595825-.4172974.5162964-.8161011.7714233-1.1990356.0504761-.0757446.1008301-.1494141.1511841-.223999.2628174-.3890991.5246582-.7675171.7871094-1.1292725.0060425-.0083618.012085-.0160522.0181274-.0244141.2603149-.3582764.5220337-.7028198.7857666-1.0419312.050293-.0646362.1003418-.1300049.1508179-.1941528.2584229-.3283691.5197754-.6505127.7854614-.9691772.0540771-.0648804.1087646-.1293945.163269-.1940308.2741699-.3253784.5513916-.6488037.8374023-.9730225.010498-.0119019.0214233-.0238647.0319214-.0357666.2868652-.3247681.5823975-.6518555.8849487-.9832764.055542-.0609131.1103516-.1212158.1665039-.1824951.3018799-.3292847.6119385-.6640625.9332275-1.0085449.0876465-.0939941.1765137-.1890869.2658081-.2846069.1955566-.2091064.3927002-.4197998.5964966-.637207.3393555-.3619995.6864624-.7321777,1.0515137-1.1228638v-2.0521851s-7.4667358,0-7.4667358.0000038ZM136.3915558,57.3976173v.0015259c-.0056152.7839355-.0140381,1.6156616-.0252075,2.5045166.0111694-.8895264.0195923-1.7215576.0252075-2.5060425ZM132.5818024,56.2433205c.0007935.210083.0022583.4319458.00354.649292-.0012817-.2174072-.0027466-.4390869-.00354-.649292ZM132.6133575,59.9036598c-.0112305-.8894043-.0195923-1.7216187-.0252075-2.5060425.0056152.7844849.0140381,1.6165161.0252075,2.5060425Z"/>
    </clipPath>
    <linearGradient id="linear-gradient-2" x1="134.7426262" y1="235.4320335" x2="134.7426262" y2="253.6843338" gradientTransform="translate(0 292) scale(1 -1)" gradientUnits="userSpaceOnUse">
      <stop offset="0" stop-color="#fff" stop-opacity="0"/>
      <stop offset=".3696883" stop-color="#fbfeff" stop-opacity=".85"/>
    </linearGradient>
    <clipPath id="clippath-11">
      <rect class="cls-3" x="13.5593224" y="153.3148804" width="45.5547638" height="31.1387787"/>
    </clipPath>
    <clipPath id="clippath-12">
      <rect class="cls-3" x="212.4574738" y="152.0715637" width="46.5842438" height="31.1535797"/>
    </clipPath>
    <clipPath id="clippath-13">
      <path class="cls-3" d="M197.4893951,186.6780701c-4.8870239-.4735718-7.3441772-.9644775-12.3841553-1.920166v5.5297852c-17.2333984,5.5983887-33.9263916,8.4039917-50.6142578,8.4039917-16.6608276,0-33.3203735-2.7955933-50.5197754-8.3757935v-5.8622437c-5.039978.9556885-7.4234009,1.6119995-12.3103638,2.0855713l-.8414917.9113159c4.8870239,5.1420288,7.3800049,7.6030884,12.4199829,12.2714844v-.0042725l.7318726-.7870483v-4.6137085c17.1856079,5.4804688,33.850647,8.2297363,50.5231323,8.2297363,16.6954346,0,33.3910522-2.7590942,50.6109009-8.2601318v4.6168213l.6351318.8186035c5.039978-4.668396,7.532959-7.1294556,12.4199829-12.2714844l-.6709595-.7724609ZM185.7403717,194.276947l-.1087036-.1554565c.0363159-.0117188.0723877-.0223999.1087036-.0341187v.1895752Z"/>
    </clipPath>
    <linearGradient id="linear-gradient-3" x1="274.5953871" y1="194.3903583" x2="274.5953871" y2="277.2850672" gradientTransform="translate(-68.3735915 -77.1201042) rotate(89.9999847) scale(1 -1)" gradientUnits="userSpaceOnUse">
      <stop offset="0" stop-color="#232424" stop-opacity="0"/>
      <stop offset=".1488302" stop-color="#232424" stop-opacity=".75"/>
    </linearGradient>
  </defs>
  <rect class="cls-27" width="272.1201172" height="292.8986816"/>
  <g>
    <g>
      <path class="cls-24" d="M134.4904327,241.361496c-43.0371094,0-78.0507812-18.2763672-78.0507812-40.7412109,0-6.5205078,2.9287109-12.7783203,8.7050781-18.5996094l.0996094-.1005859.0791016-.1162109c1.5253906-2.2587891,4.0839844-6.9638672,4.0839844-13.1005859l.0029297-1.5507812c.0058594-2.4121094.0126953-4.6904297-.1328125-6.5371094-.2626953-3.3447266-1.4365234-6.1894531-2.4375-8.0703125h135.3710938c-.9726562,1.8779297-2.1181641,4.7236328-2.3808594,8.0703125-.1455078,1.8466797-.1386719,4.125-.1328125,6.5371094l.0029297,1.5507812c0,6.7871094,3.1162109,11.7919922,4.4560547,13.6289062l.0595703.0820312.0712891.0732422c5.4765625,5.6972656,8.2529297,11.7978516,8.2529297,18.1328125,0,22.4648438-35.0126953,40.7412109-78.0498047,40.7412109Z"/>
      <path class="cls-13" d="M199.8828278,154.0451202c-.7184753,1.7954407-1.3553467,4.0002899-1.5482788,6.4522552-.1497498,1.9049225-.1435242,4.2101135-.1369019,6.6506348l.0028076,1.5554504c0,7.2260284,3.3172913,12.5561981,4.7435303,14.5124207l.1200867.1647186.1412659.1469421c5.1990662,5.4084778,7.8352051,11.1592865,7.8352051,17.0926666,0,10.119873-7.7089233,19.786499-21.706665,27.2192841-14.5995178,7.7523041-34.0766602,12.021698-54.8435059,12.021698-20.7669373,0-40.2441101-4.2693939-54.843689-12.021698-13.9977417-7.4327545-21.706665-17.099411-21.706665-27.2192841,0-6.1102753,2.7822876-12.0126648,8.2695312-17.5432129l.1983948-.1999359.1576843-.2333832c1.6214294-2.3995514,4.3415527-7.4013977,4.3415527-13.9401855l.0027771-1.5521698c.0065613-2.441803.0127869-4.7481842-.1370544-6.6539764-.1927795-2.4509277-.842926-4.6553192-1.5794678-6.4521942h130.6893921M204.8684845,151.0451202H64.1426849s3.2019958,4.125,3.6394348,9.6873932c.1702881,2.1657715.125061,4.9832153.125061,7.9709473,0,5.8373871-2.5063477,10.3057251-3.8272705,12.2605591-5.826416,5.8723755-9.1398926,12.5573883-9.1398926,19.656189,0,23.3291168,35.6158447,42.2409821,79.550354,42.2409821,43.9343262,0,79.5501709-18.9118652,79.5501709-42.2409821,0-6.9049072-3.1400757-13.4165039-8.6724243-19.1716919-1.1422119-1.5666504-4.1676636-6.3061371-4.1676636-12.7450562,0-2.9877319-.0454102-5.8051758.1248779-7.9709473.4376221-5.5623779,3.5431519-9.6873779,3.5431519-9.6873779h0v-.0000153Z"/>
    </g>
    <path class="cls-13" d="M134.8652802,182.1987c1.2714539,12.2991486,1.3052521,24.659668.876297,37-.1652374,4.1111298-.4093781,8.222229-.876297,12.3333435h-.75c-.4669495-4.1111145-.7110901-8.2222137-.8762207-12.3333435-.3269196-8.2219391-.3269196-16.4447174-.0000305-24.6666565.1651611-4.1111145.4093018-8.222229.8762512-12.3333435h.75Z"/>
    <g>
      <ellipse class="cls-16" cx="134.4902649" cy="138.1524811" rx="72.8282013" ry="39.748703"/>
      <path class="cls-13" d="M206.0684662,138.1524811c.0213013-7.29422-3.9351501-13.9706497-9.1736298-18.894371-16.5371399-15.056015-40.6358185-19.5516586-62.4044342-19.8546524-21.725769.3145981-45.8732147,4.8782959-62.3876648,19.8723755-5.2408905,4.9157181-9.2061539,11.5847015-9.1906166,18.8766785.0310402,7.2838898,4.0173454,13.9078369,9.27705,18.7857361,16.5452194,14.8541718,40.6439133,19.2695312,62.3009872,19.4632416,21.6145477-.205658,45.7613983-4.6884003,62.2841797-19.4809723,5.2621002-4.8699493,9.2571869-11.4863434,9.2941284-18.7680511h0v.0000153ZM208.5684662,138.1524811c.0382233,8.0029602-4.27211,15.3810272-9.9490814,20.7043304-17.0748901,15.5685883-41.7108765,20.2314758-64.1289673,20.5447083-22.3748627-.3253479-47.059967-5.0554047-64.1122208-20.5624084-5.6787796-5.3158569-9.9982071-12.6853638-9.9660454-20.6866455.0129013-7.9928131,4.3534279-15.3191376,10.0524864-20.5957031,17.0795822-15.3684769,41.7212906-19.9503937,64.0255203-20.1532898,22.2612152.2153549,46.9516754,4.8638,64.008728,20.1710052,5.7008514,5.2691498,10.050415,12.5868225,10.0695801,20.5780182h0v-.0000153Z"/>
    </g>
    <g>
      <ellipse class="cls-13" cx="134.4902668" cy="129.6483593" rx="48.8710003" ry="24.9927845"/>
      <path class="cls-14" d="M182.2362518,129.6483612c-.3452148-10.0429611-10.4993439-15.8191605-18.8578796-19.238205-18.3034515-6.7967682-39.4551086-6.6699677-57.7679214.0210037-25.0245438,9.7532806-25.1832657,28.5333023.1711655,37.9859695,18.2534943,6.4502716,39.1239319,6.3430328,57.4094238-.0207977,8.36026-3.2401276,18.5186462-8.7919617,19.0452118-18.7479706h0ZM184.4862518,129.6483612c-.2189636,11.0277252-11.2018127,17.7090607-20.3058319,21.3403015-18.976593,7.0039978-40.3860703,6.8770599-59.3721237-.0208893-26.9642639-10.4181671-27.1331482-32.0776901.1711731-42.1903229,18.892952-6.6614456,40.1343307-6.5394897,59.0136948.0207596,9.1048889,3.4435272,20.1096954,9.9025192,20.4930878,20.8501511h0Z"/>
    </g>
  </g>
  <g>
    <g class="cls-34">
      <rect class="cls-12" x="136.8973541" y="81.7580719" width="3.6089783" height="2.052124"/>
      <rect class="cls-12" x="128.4733429" y="81.7580719" width="3.6000061" height="2.052124"/>
      <polygon class="cls-9" points="134.494339 77.6816864 140.5063324 81.7580719 136.8973541 81.7580719 137.4913483 89.9615936 131.488327 89.9615936 132.073349 81.7580719 128.4733429 81.7580719 134.494339 77.6816864"/>
      <rect class="cls-12" x="131.488327" y="89.9615936" width="6.0030212" height="2.052124"/>
    </g>
    <g class="cls-34">
      <text class="cls-32" transform="translate(220.0576019 154.6398468)"><tspan x="0" y="0">+X</tspan></text>
    </g>
    <g class="cls-34">
      <text class="cls-32" transform="translate(148.3234711 276.0722656)"><tspan x="0" y="0">+</tspan><tspan class="cls-30" x="9.34375" y="0">Y</tspan></text>
    </g>
    <g class="cls-34">
      <text class="cls-32" transform="translate(23.4228897 251.2332306)"><tspan x="0" y="0">+Z</tspan></text>
    </g>
    <g class="cls-34">
      <polygon class="cls-6" points="137.392334 267.8438721 141.7212982 267.8438721 134.4943237 280.5889587 127.2583313 267.8438721 131.5873566 267.8438721 131.7223358 251.1493073 137.2573242 251.1493073 137.392334 267.8438721"/>
      <polygon class="cls-1" points="141.7212982 267.8438721 141.7212982 269.8959961 134.4943237 282.6410828 134.4943237 280.5889587 141.7212982 267.8438721"/>
      <polygon class="cls-20" points="134.4943237 280.5889587 134.4943237 282.6410828 127.2583313 269.8959961 127.2583313 267.8438721 134.4943237 280.5889587"/>
    </g>
    <g>
      <line class="cls-31" x1="38.1485748" y1="200.8982239" x2="38.1485748" y2="221.4671478"/>
      <polygon class="cls-10" points="30.6690826 219.2786713 38.1485748 232.2315063 45.628067 219.2786713 30.6690826 219.2786713"/>
    </g>
    <g class="cls-49">
      <g>
        <line class="cls-31" x1="38.1485748" y1="134.3984833" x2="38.1485748" y2="113.8295517"/>
        <polygon class="cls-10" points="45.628067 116.0180359 38.1485748 103.0652084 30.6690826 116.0180359 45.628067 116.0180359"/>
      </g>
    </g>
    <g id="Envelope_persp" data-name="Envelope persp">
      <g class="cls-34">
        <g class="cls-34">
          <g class="cls-35">
            <g class="cls-34">
              <path class="cls-18" d="M187.0903473,67.5526199v2.052124c-18.3127747-8.0545273-35.4598389-12.0801735-52.6038818-12.080101-17.1482239.0000763-34.293396,4.027832-52.5971069,12.080101v-2.052124c18.3037109-8.052269,35.4488831-12.0800247,52.5971069-12.080101,17.144043-.0000725,34.2911072,4.0255737,52.6038818,12.080101"/>
            </g>
          </g>
        </g>
        <path class="cls-17" d="M134.4968109,52.9258347c17.3681335.0008354,34.7443237,4.0243645,53.2955322,12.0727005.5669861-2.004364.8370056-2.976944,1.3680115-4.8967361,5.1659851,5.2011948,7.7219849,8.0512848,12.7349854,14.3180923-6.8850098-1.2178421-10.1159973-1.5223007-16.2720032-1.6068726.6029968-2.1565933.8909912-3.2052917,1.4670105-5.2603989-18.3127747-8.0545273-35.4598389-12.0801735-52.6038818-12.080101-17.1482239.0000763-34.293396,4.027832-52.5971069,12.080101.5759888,2.0551071.8639832,3.1038055,1.46698,5.2603989-6.1560059.0845718-9.3869934.3890305-16.2720032,1.6068726,5.0130005-6.2668076,7.5690002-9.1168976,12.7350159-14.3180962.5310059,1.9197922.8099976,2.8923721,1.367981,4.9051933,18.5558167-8.0542374,35.9286194-12.0819931,53.3094788-12.0811539Z"/>
        <g class="cls-34">
          <g class="cls-36">
            <g class="cls-34">
              <path class="cls-18" d="M201.89534,74.4198914v2.052124c-6.8850098-1.2178421-10.1159973-1.5223007-16.2720032-1.6068726v-2.052124c6.1560059.0845718,9.3869934.3890305,16.2720032,1.6068726"/>
            </g>
          </g>
        </g>
        <g class="cls-34">
          <g class="cls-39">
            <g class="cls-34">
              <path class="cls-18" d="M83.3563385,72.8130188v2.052124c-6.1560059.0845718-9.3869934.3890305-16.2720032,1.6068726v-2.052124c6.8850098-1.2178421,10.1159973-1.5223007,16.2720032-1.6068726"/>
            </g>
          </g>
        </g>
      </g>
    </g>
    <g class="cls-38">
      <rect class="cls-4" x="126.8446487" y="47.0585648" width="78.4291992" height="32.1042938"/>
    </g>
    <g class="cls-34">
      <g class="cls-34">
        <g class="cls-37">
          <g class="cls-34">
            <path class="cls-7" d="M142.44133,44.7380981v2.0521202h-6.3539734v-2.0521202h6.3539734"/>
          </g>
        </g>
      </g>
      <g class="cls-34">
        <g class="cls-43">
          <g class="cls-34">
            <path class="cls-7" d="M132.8923492,44.7380981v2.0521202h-6.3540039v-2.0521202h6.3540039"/>
          </g>
        </g>
      </g>
      <g class="cls-34">
        <g class="cls-42">
          <g class="cls-34">
            <path class="cls-28" d="M136.3999634,55.1799545v2.0521202c0,1.3947868-.0112457,2.9443016-.0336151,4.721962v-2.0521202c.0223541-1.7776604.0336151-3.3271751.0336151-4.721962"/>
          </g>
        </g>
      </g>
      <g class="cls-34">
        <g class="cls-40">
          <g class="cls-34">
            <path class="cls-7" d="M132.613327,59.9019203v2.0521202c-.0223541-1.7776222-.0336151-3.3271103-.0336151-4.7218781v-2.0521202c0,1.3947639.0112457,2.944252.0336151,4.7218742"/>
          </g>
        </g>
      </g>
      <path class="cls-26" d="M134.494339,38.8772354c2.0880127,2.5287094,3.9150085,3.1376343,7.946991,5.8608627h-6.3539734c.2789917,4.5499916.368988,8.0089989.2789917,15.1638222h7.4880066c-4.0140076,4.2962761-6.3720093,6.6389275-9.3600159,11.8401299-2.9970093-5.2012024-5.355011-7.5438538-9.368988-11.840126h7.4879761c-.0899963-7.1548233,0-10.6138306.2790222-15.1638222h-6.3540039c4.0319824-2.7232285,5.8590088-3.3321495,7.9559937-5.8608665Z"/>
      <g class="cls-34">
        <g class="cls-41">
          <g class="cls-34">
            <path class="cls-19" d="M143.8543549,59.9019203v2.0521202c-.6616211.7081375-1.278244,1.3632011-1.8601074,1.9867363v-2.0521202c.5818634-.6235352,1.1985016-1.2785988,1.8601074-1.9867363"/>
            <path class="cls-21" d="M141.9942474,61.8886566v2.0521202c-2.9483337,3.1594582-5.0044098,5.5094795-7.4999084,9.8533897v-2.052124c2.4954987-4.3439026,4.5515747-6.6939316,7.4999084-9.8533859"/>
          </g>
        </g>
      </g>
      <g class="cls-34">
        <g class="cls-44">
          <g class="cls-34">
            <path class="cls-7" d="M134.494339,71.7420425v2.052124c-2.9970093-5.2011948-5.355011-7.5438538-9.368988-11.840126v-2.0521202c4.0139771,4.2962761,6.3719788,6.6389275,9.368988,11.8401299"/>
          </g>
        </g>
      </g>
    </g>
    <g class="cls-47">
      <rect class="cls-22" x="126.0963821" y="38.3156662" width="17.2924881" height="18.2523003"/>
    </g>
    <g class="cls-34">
      <text class="cls-33" transform="translate(122.589241 24.0612183)"><tspan x="0" y="0">HID</tspan></text>
    </g>
    <g class="cls-48">
      <g class="cls-50">
        <g>
          <g class="cls-34">
            <polygon class="cls-5" points="237.9223175 163.6869812 237.9223175 165.73909 236.7163239 161.6457977 236.7163239 159.5936737 237.9223175 163.6869812"/>
            <polygon class="cls-5" points="237.9223175 163.6869812 237.9223175 165.73909 236.7163239 161.6457977 236.7163239 159.5936737 237.9223175 163.6869812"/>
            <rect class="cls-2" x="221.4343414" y="169.3195038" width="18.1530151" height="2.052124"/>
            <polygon class="cls-5" points="221.4343414 169.3195038 221.4343414 171.3716125 220.0573273 165.73909 220.0573273 163.6869812 221.4343414 169.3195038"/>
            <polygon class="cls-26" points="236.7163239 159.5936737 251.4403229 166.4778595 240.8743439 173.6495972 239.5873566 169.3195038 221.4343414 169.3195038 220.0573273 163.6869812 237.9223175 163.6869812 236.7163239 159.5936737"/>
            <polygon class="cls-29" points="251.4403229 166.4778595 251.4403229 168.5299835 240.8743439 175.7017212 240.8743439 173.6495972 251.4403229 166.4778595"/>
            <polygon class="cls-5" points="240.8743439 173.6495972 240.8743439 175.7017212 239.5873566 171.3716125 239.5873566 169.3195038 240.8743439 173.6495972"/>
          </g>
          <g class="cls-34">
            <polygon class="cls-15" points="34.27034 159.5936737 34.27034 161.6457977 33.0553436 165.73909 33.0553436 163.6869812 34.27034 159.5936737"/>
            <polygon class="cls-15" points="34.27034 159.5936737 34.27034 161.6457977 33.0553436 165.73909 33.0553436 163.6869812 34.27034 159.5936737"/>
            <polygon class="cls-15" points="50.9293365 163.6869812 50.9293365 165.73909 49.5523529 171.3716125 49.5523529 169.3195038 50.9293365 163.6869812"/>
            <rect class="cls-2" x="31.3903351" y="169.3195038" width="18.1620178" height="2.052124"/>
            <polygon class="cls-26" points="34.27034 159.5936737 33.0553436 163.6869812 50.9293365 163.6869812 49.5523529 169.3195038 31.3903351 169.3195038 30.1123505 173.6495972 19.5373383 166.4778595 34.27034 159.5936737"/>
            <polygon class="cls-15" points="31.3903351 169.3195038 31.3903351 171.3716125 30.1123505 175.7017212 30.1123505 173.6495972 31.3903351 169.3195038"/>
            <polygon class="cls-5" points="30.1123505 173.6495972 30.1123505 175.7017212 19.5373383 168.5299835 19.5373383 166.4778595 30.1123505 173.6495972"/>
          </g>
        </g>
      </g>
    </g>
    <g class="cls-46">
      <g>
        <g class="cls-34">
          <polygon class="cls-5" points="237.9223175 163.6869812 237.9223175 165.73909 236.7163239 161.6457977 236.7163239 159.5936737 237.9223175 163.6869812"/>
          <polygon class="cls-5" points="237.9223175 163.6869812 237.9223175 165.73909 236.7163239 161.6457977 236.7163239 159.5936737 237.9223175 163.6869812"/>
          <rect class="cls-2" x="221.4343414" y="169.3195038" width="18.1530151" height="2.052124"/>
          <polygon class="cls-5" points="221.4343414 169.3195038 221.4343414 171.3716125 220.0573273 165.73909 220.0573273 163.6869812 221.4343414 169.3195038"/>
          <polygon class="cls-26" points="236.7163239 159.5936737 251.4403229 166.4778595 240.8743439 173.6495972 239.5873566 169.3195038 221.4343414 169.3195038 220.0573273 163.6869812 237.9223175 163.6869812 236.7163239 159.5936737"/>
          <polygon class="cls-29" points="251.4403229 166.4778595 251.4403229 168.5299835 240.8743439 175.7017212 240.8743439 173.6495972 251.4403229 166.4778595"/>
          <polygon class="cls-5" points="240.8743439 173.6495972 240.8743439 175.7017212 239.5873566 171.3716125 239.5873566 169.3195038 240.8743439 173.6495972"/>
        </g>
        <g class="cls-34">
          <polygon class="cls-15" points="34.27034 159.5936737 34.27034 161.6457977 33.0553436 165.73909 33.0553436 163.6869812 34.27034 159.5936737"/>
          <polygon class="cls-15" points="50.9293365 163.6869812 50.9293365 165.73909 49.5523529 171.3716125 49.5523529 169.3195038 50.9293365 163.6869812"/>
          <rect class="cls-2" x="31.3903351" y="169.3195038" width="18.1620178" height="2.052124"/>
          <polygon class="cls-26" points="34.27034 159.5936737 33.0553436 163.6869812 50.9293365 163.6869812 49.5523529 169.3195038 31.3903351 169.3195038 30.1123505 173.6495972 19.5373383 166.4778595 34.27034 159.5936737"/>
          <polygon class="cls-15" points="31.3903351 169.3195038 31.3903351 171.3716125 30.1123505 175.7017212 30.1123505 173.6495972 31.3903351 169.3195038"/>
          <polygon class="cls-5" points="30.1123505 173.6495972 30.1123505 175.7017212 19.5373383 168.5299835 19.5373383 166.4778595 30.1123505 173.6495972"/>
        </g>
      </g>
    </g>
    <g>
      <polygon class="cls-25" points="83.9712143 192.875 83.9712143 198.9306793 83.2393341 199.7177887 83.2393341 194.0874481 83.9712143 192.875"/>
      <g class="cls-34">
        <polyline class="cls-25" points="185.1052246 184.7579346 185.7403412 185.6660919 185.1052246 184.7579346 185.1052246 190.2926025 185.7403412 191.1111755 185.7403412 185.6660919"/>
        <polyline class="cls-25" points="185.1052246 193.3687744 185.7403412 194.276947 185.1052246 193.3687744 185.1052246 198.9034424 185.7403412 199.7220154 185.7403412 194.276947"/>
        <path class="cls-8" d="M185.7403412,185.6660919c5.0400085.9556732,7.5329895,1.3108826,12.4200134,1.7844849l-.67099-.7724609c-4.8870239-.4736023-7.3441467-.9645081-12.3841553-1.9201813"/>
      </g>
      <g class="cls-34">
        <path class="cls-8" d="M70.8193512,187.4505768l.8414764-.9113159c4.8869934-.4736023,7.2704086-1.1299286,12.3103867-2.0855865l-.7318802,1.2124329c-5.039978.9556732-7.5329895,1.3108826-12.4199829,1.7844849"/>
      </g>
      <polygon class="cls-25" points="83.9712143 184.4536591 83.9712143 190.3212585 83.2393341 191.1083527 83.2393341 185.6660919 83.9712143 184.4536591"/>
      <path class="cls-8" d="M83.2393341,191.1083527v-1.026062c17.4593506,5.7398376,34.354248,8.6094208,51.2516174,8.6094208,16.893158,0,33.7904968-2.8696594,51.2493896-8.6066132v1.026062c-17.4588928,5.7369537-34.3562317,8.6066132-51.2493896,8.6066132-16.8973694,0-33.7922668-2.8695984-51.2516174-8.6094208"/>
      <path class="cls-11" d="M185.7403717,185.6660767v5.4450684c-17.4589233,5.7369995-34.3562622,8.6066284-51.2493896,8.6066284-16.8973999,0-33.7922974-2.8695679-51.2516479-8.609436v-5.4422607c-5.039978.9556885-7.532959,1.3109131-12.4199829,1.7844849,4.8870239,5.1420288,7.3800049,7.6030884,12.4199829,12.2714844v-5.6345825c17.4449463,5.637207,34.3455811,8.4592896,51.2550049,8.4592896,16.9009399,0,33.8010864-2.8221436,51.2460327-8.4593506v5.6346436c5.039978-4.668396,7.532959-7.1294556,12.4199829-12.2714844-4.8870239-.4735718-7.3800049-.8287964-12.4199829-1.7844849Z"/>
    </g>
    <g class="cls-45">
      <rect class="cls-23" x="126.0146625" y="179.1806957" width="82.8946991" height="36.5934601"/>
    </g>
  </g>
</svg>
